#!OML:ASF E:\emotionWalksFemale\Project 1\Capture day 1\Session 1\Female1.ASF
:FULLY-SPECIFIED
:DEGREES
16
root 8.33424 15.0966 41.8902 -176.709 -2.1969 -178.643
lowerback 7.95697 1.44764 2.24447
upperback -3.67719 2.18616 0.437491
thorax -8.28912 0.937126 -1.12229
lowerneck -5.33651 -2.848 -7.90397
upperneck 5.45083 -3.65374 6.58196
head 3.06081 -1.78803 3.47052
rclavicle -1.22532e-015 -7.45443e-015
rhumerus -40.8656 6.90171 -85.191
rradius 38.7127
rwrist 13.4819
rhand -5.15202 -54.028
rfingers 7.12502
rthumb 20.6473 -82.9498
lclavicle -1.22532e-015 -7.45443e-015
lhumerus -45.3146 -1.76746 83.6959
lradius 42.4397
lwrist -9.47316
lhand -6.86794 -33.184
lfingers 7.12502
lthumb 18.9978 -4.09183
rfemur -10.7223 5.23534 26.7607
rtibia 29.1074
rfoot -24.0738 -24.0887
rtoes 0.761319
lfemur -14.8802 -10.5409 -19.3699
ltibia 33.6824
lfoot -27.459 10.2988
ltoes -42.4853
17
root 8.33513 15.0828 41.8823 -176.489 -2.10088 -178.765
lowerback 7.98883 1.45166 2.18626
upperback -3.64941 2.17938 0.317049
thorax -8.2751 0.935187 -1.21658
lowerneck -5.33104 -2.88996 -7.59588
upperneck 4.87866 -3.6993 6.48748
head 2.85466 -1.80105 3.36994
rclavicle -1.97527e-014 -9.0447e-015
rhumerus -40.8558 7.27558 -85.6896
rradius 38.9822
rwrist 12.5755
rhand -4.16969 -55.942
rfingers 7.12502
rthumb 21.591 -84.7583
lclavicle -1.97527e-014 -9.0447e-015
lhumerus -45.2833 -1.98155 83.6617
lradius 42.4201
lwrist -9.2183
lhand -7.30317 -33.1589
lfingers 7.12502
lthumb 18.5792 -4.02617
rfemur -11.2131 4.94957 26.6234
rtibia 29.635
rfoot -24.1957 -23.8951
rtoes -0.281663
lfemur -15.292 -10.2691 -19.4697
ltibia 34.1017
lfoot -27.702 10.2576
ltoes -43.196
18
root 8.33523 15.0687 41.8734 -176.35 -1.9325 -178.784
lowerback 8.07493 1.46928 2.11516
upperback -3.59483 2.19829 0.30709
thorax -8.26781 0.949602 -1.19198
lowerneck -5.40561 -2.90016 -7.32816
upperneck 4.42922 -3.69386 6.29639
head 2.70077 -1.79304 3.24744
rclavicle 2.71885e-014 1.21259e-014
rhumerus -40.7911 7.40096 -85.8392
rradius 39.0555
rwrist 12.2107
rhand -5.48728 -55.3941
rfingers 7.12502
rthumb 20.3252 -84.3505
lclavicle 2.71885e-014 1.21259e-014
lhumerus -45.3741 -2.32872 83.8982
lradius 42.4259
lwrist -9.17517
lhand -7.87424 -32.249
lfingers 7.12502
lthumb 18.0298 -3.06472
rfemur -11.6394 4.87349 26.5855
rtibia 30.1896
rfoot -24.4913 -23.8064
rtoes -1.12159
lfemur -15.5998 -10.0372 -19.4695
ltibia 34.5124
lfoot -27.9932 10.0639
ltoes -42.5425
19
root 8.33607 15.0594 41.8617 -176.094 -1.67256 -178.768
lowerback 8.13728 1.50779 2.03244
upperback -3.60345 2.24643 0.371041
thorax -8.31755 0.978305 -1.08737
lowerneck -5.65242 -2.92445 -7.34608
upperneck 4.23705 -3.68948 6.17572
head 2.67852 -1.78812 3.20636
rclavicle 1.53709e-015 -3.97569e-016
rhumerus -40.6999 7.18865 -85.4887
rradius 38.8672
rwrist 12.9043
rhand -4.8579 -54.5238
rfingers 7.12502
rthumb 20.9299 -83.4146
lclavicle 1.53709e-015 -3.97569e-016
lhumerus -45.566 -2.68662 84.2809
lradius 42.3959
lwrist -9.24558
lhand -7.89951 -31.5031
lfingers 7.12502
lthumb 18.0055 -2.31655
rfemur -12.1663 4.94212 26.5745
rtibia 30.7474
rfoot -24.7341 -23.8602
rtoes -1.45255
lfemur -16.0116 -9.76399 -19.4078
ltibia 34.9455
lfoot -28.3804 9.69349
ltoes -41.2562
20
root 8.33912 15.0461 41.8486 -175.861 -1.50984 -178.813
lowerback 8.27136 1.5278 1.95233
upperback -3.65767 2.26692 0.35871
thorax -8.45633 0.989533 -1.06387
lowerneck -5.77944 -2.93941 -7.37225
upperneck 4.00913 -3.68924 6.18029
head 2.62633 -1.7847 3.21081
rclavicle -1.3694e-014 5.06901e-015
rhumerus -40.8567 7.33272 -85.7087
rradius 39.0127
rwrist 12.63
rhand -5.56072 -54.0341
rfingers 7.12502
rthumb 20.2546 -82.998
lclavicle -1.3694e-014 5.06901e-015
lhumerus -45.9046 -2.9224 84.4529
lradius 42.4604
lwrist -9.36022
lhand -9.35581 -31.7747
lfingers 7.12502
lthumb 16.6039 -2.46493
rfemur -12.6383 4.93177 26.5338
rtibia 31.3058
rfoot -24.9949 -23.9959
rtoes -1.83545
lfemur -16.4167 -9.49487 -19.4118
ltibia 35.418
lfoot -28.7447 9.49827
ltoes -40.7281
21
root 8.34152 15.0263 41.8407 -175.719 -1.54961 -178.87
lowerback 8.49542 1.4467 1.90499
upperback -3.65804 2.15866 0.337755
thorax -8.59182 0.937514 -1.05014
lowerneck -5.95572 -2.91294 -7.33613
upperneck 3.76097 -3.6379 6.21539
head 2.57174 -1.75385 3.21602
rclavicle 3.7474e-015 1.19271e-015
rhumerus -40.7211 6.91436 -85.5163
rradius 38.4913
rwrist 13.2096
rhand -5.72267 -52.7959
rfingers 7.12502
rthumb 20.0989 -81.7763
lclavicle 3.7474e-015 1.19271e-015
lhumerus -46.1855 -2.97222 84.543
lradius 42.5918
lwrist -9.39109
lhand -7.91024 -31.078
lfingers 7.12502
lthumb 17.9952 -1.89054
rfemur -13.0587 4.75196 26.5004
rtibia 31.8768
rfoot -25.2106 -23.9824
rtoes -2.56541
lfemur -16.7716 -9.40693 -19.4275
ltibia 35.8827
lfoot -29.0682 9.35513
ltoes -40.6911
22
root 8.34467 15.0084 41.8365 -175.478 -1.59674 -178.904
lowerback 8.64327 1.32885 1.81531
upperback -3.66616 1.99927 0.409927
thorax -8.69742 0.865668 -0.902926
lowerneck -6.07209 -2.84814 -7.46624
upperneck 3.44431 -3.52221 6.24391
head 2.4828 -1.69409 3.25382
rclavicle 7.0817e-015 1.98785e-016
rhumerus -40.7376 7.55114 -85.8505
rradius 38.7512
rwrist 12.9044
rhand -6.297 -51.6296
rfingers 7.12502
rthumb 19.5468 -80.667
lclavicle 7.0817e-015 1.98785e-016
lhumerus -46.3472 -2.8412 84.6773
lradius 42.5946
lwrist -9.33313
lhand -7.76668 -30.4862
lfingers 7.12502
lthumb 18.1333 -1.31145
rfemur -13.6213 4.60475 26.4827
rtibia 32.4881
rfoot -25.5072 -23.8039
rtoes -2.45573
lfemur -17.2645 -9.36186 -19.3891
ltibia 36.377
lfoot -29.328 9.03845
ltoes -40.9272
23
root 8.35097 14.9975 41.8276 -175.182 -1.47341 -178.969
lowerback 8.73363 1.33673 1.67123
upperback -3.70923 1.99472 0.412662
thorax -8.80203 0.869883 -0.821631
lowerneck -6.01223 -2.82624 -7.49712
upperneck 2.92307 -3.4778 6.2405
head 2.29403 -1.67157 3.25736
rclavicle 1.14425e-014 6.36111e-015
rhumerus -40.6229 7.32438 -85.6521
rradius 38.3942
rwrist 13.5577
rhand -5.38669 -52.6752
rfingers 7.12502
rthumb 20.4218 -81.6213
lclavicle 1.14425e-014 6.36111e-015
lhumerus -46.4072 -2.98722 84.7983
lradius 42.4149
lwrist -9.28109
lhand -7.31482 -30.4585
lfingers 7.12502
lthumb 18.568 -1.32467
rfemur -14.1925 4.55035 26.4126
rtibia 33.0827
rfoot -25.8198 -23.6869
rtoes -1.84566
lfemur -17.7609 -9.44599 -19.402
ltibia 36.8787
lfoot -29.5288 9.16769
ltoes -41.2055
24
root 8.35365 14.9788 41.8137 -174.905 -1.35162 -179.033
lowerback 8.75671 1.38665 1.65483
upperback -3.7242 2.05344 0.315129
thorax -8.82724 0.896204 -0.926221
lowerneck -6.02245 -2.85318 -7.38896
upperneck 2.44015 -3.51202 6.27689
head 2.13528 -1.68633 3.24469
rclavicle -3.04482e-014 -1.68967e-015
rhumerus -40.618 7.42026 -86.0399
rradius 38.43
rwrist 13.142
rhand -5.67679 -53.3763
rfingers 7.12502
rthumb 20.143 -82.352
lclavicle -3.04482e-014 -1.68967e-015
lhumerus -46.4804 -3.3043 84.8254
lradius 42.3214
lwrist -9.11222
lhand -5.35585 -30.7529
lfingers 7.12502
lthumb 20.4515 -1.80997
rfemur -14.7292 4.46684 26.3311
rtibia 33.6333
rfoot -25.9386 -23.7372
rtoes -2.1205
lfemur -18.2633 -9.20864 -19.4378
ltibia 37.3921
lfoot -29.7598 9.28643
ltoes -41.3938
